%TF.GenerationSoftware,KiCad,Pcbnew,8.0.3*%
%TF.CreationDate,2024-08-24T23:10:25+09:00*%
%TF.ProjectId,Rustorch,52757374-6f72-4636-982e-6b696361645f,rev?*%
%TF.SameCoordinates,Original*%
%TF.FileFunction,Legend,Bot*%
%TF.FilePolarity,Positive*%
%FSLAX46Y46*%
G04 Gerber Fmt 4.6, Leading zero omitted, Abs format (unit mm)*
G04 Created by KiCad (PCBNEW 8.0.3) date 2024-08-24 23:10:25*
%MOMM*%
%LPD*%
G01*
G04 APERTURE LIST*
%ADD10C,0.200000*%
G04 APERTURE END LIST*
D10*
X155296993Y-132741385D02*
X155356517Y-132681861D01*
X155356517Y-132681861D02*
X155475564Y-132622338D01*
X155475564Y-132622338D02*
X155594612Y-132622338D01*
X155594612Y-132622338D02*
X155713660Y-132681861D01*
X155713660Y-132681861D02*
X155773183Y-132741385D01*
X155773183Y-132741385D02*
X155832707Y-132860433D01*
X155832707Y-132860433D02*
X155832707Y-132979480D01*
X155832707Y-132979480D02*
X155773183Y-133098528D01*
X155773183Y-133098528D02*
X155713660Y-133158052D01*
X155713660Y-133158052D02*
X155594612Y-133217576D01*
X155594612Y-133217576D02*
X155475564Y-133217576D01*
X155475564Y-133217576D02*
X155356517Y-133158052D01*
X155356517Y-133158052D02*
X155296993Y-133098528D01*
X155296993Y-132622338D02*
X155296993Y-133098528D01*
X155296993Y-133098528D02*
X155237469Y-133158052D01*
X155237469Y-133158052D02*
X155177945Y-133158052D01*
X155177945Y-133158052D02*
X155058898Y-133098528D01*
X155058898Y-133098528D02*
X154999374Y-132979480D01*
X154999374Y-132979480D02*
X154999374Y-132681861D01*
X154999374Y-132681861D02*
X155118422Y-132503290D01*
X155118422Y-132503290D02*
X155296993Y-132384242D01*
X155296993Y-132384242D02*
X155535088Y-132324719D01*
X155535088Y-132324719D02*
X155773183Y-132384242D01*
X155773183Y-132384242D02*
X155951755Y-132503290D01*
X155951755Y-132503290D02*
X156070802Y-132681861D01*
X156070802Y-132681861D02*
X156130326Y-132919957D01*
X156130326Y-132919957D02*
X156070802Y-133158052D01*
X156070802Y-133158052D02*
X155951755Y-133336623D01*
X155951755Y-133336623D02*
X155773183Y-133455671D01*
X155773183Y-133455671D02*
X155535088Y-133515195D01*
X155535088Y-133515195D02*
X155296993Y-133455671D01*
X155296993Y-133455671D02*
X155118422Y-133336623D01*
X153987469Y-133277100D02*
X154106517Y-133336623D01*
X154106517Y-133336623D02*
X154344612Y-133336623D01*
X154344612Y-133336623D02*
X154463659Y-133277100D01*
X154463659Y-133277100D02*
X154523183Y-133158052D01*
X154523183Y-133158052D02*
X154523183Y-132681861D01*
X154523183Y-132681861D02*
X154463659Y-132562814D01*
X154463659Y-132562814D02*
X154344612Y-132503290D01*
X154344612Y-132503290D02*
X154106517Y-132503290D01*
X154106517Y-132503290D02*
X153987469Y-132562814D01*
X153987469Y-132562814D02*
X153927945Y-132681861D01*
X153927945Y-132681861D02*
X153927945Y-132800909D01*
X153927945Y-132800909D02*
X154523183Y-132919957D01*
X153511278Y-133336623D02*
X152856516Y-132503290D01*
X153511278Y-132503290D02*
X152856516Y-133336623D01*
X152558897Y-132503290D02*
X152082706Y-132503290D01*
X152380325Y-132086623D02*
X152380325Y-133158052D01*
X152380325Y-133158052D02*
X152320802Y-133277100D01*
X152320802Y-133277100D02*
X152201754Y-133336623D01*
X152201754Y-133336623D02*
X152082706Y-133336623D01*
X151963659Y-133455671D02*
X151011278Y-133455671D01*
X150773182Y-133277100D02*
X150654135Y-133336623D01*
X150654135Y-133336623D02*
X150416039Y-133336623D01*
X150416039Y-133336623D02*
X150296992Y-133277100D01*
X150296992Y-133277100D02*
X150237468Y-133158052D01*
X150237468Y-133158052D02*
X150237468Y-133098528D01*
X150237468Y-133098528D02*
X150296992Y-132979480D01*
X150296992Y-132979480D02*
X150416039Y-132919957D01*
X150416039Y-132919957D02*
X150594611Y-132919957D01*
X150594611Y-132919957D02*
X150713658Y-132860433D01*
X150713658Y-132860433D02*
X150773182Y-132741385D01*
X150773182Y-132741385D02*
X150773182Y-132681861D01*
X150773182Y-132681861D02*
X150713658Y-132562814D01*
X150713658Y-132562814D02*
X150594611Y-132503290D01*
X150594611Y-132503290D02*
X150416039Y-132503290D01*
X150416039Y-132503290D02*
X150296992Y-132562814D01*
X149166039Y-132503290D02*
X149166039Y-133336623D01*
X149701753Y-132503290D02*
X149701753Y-133158052D01*
X149701753Y-133158052D02*
X149642230Y-133277100D01*
X149642230Y-133277100D02*
X149523182Y-133336623D01*
X149523182Y-133336623D02*
X149344611Y-133336623D01*
X149344611Y-133336623D02*
X149225563Y-133277100D01*
X149225563Y-133277100D02*
X149166039Y-133217576D01*
X148570801Y-133336623D02*
X148570801Y-132503290D01*
X148570801Y-132086623D02*
X148630325Y-132146147D01*
X148630325Y-132146147D02*
X148570801Y-132205671D01*
X148570801Y-132205671D02*
X148511278Y-132146147D01*
X148511278Y-132146147D02*
X148570801Y-132086623D01*
X148570801Y-132086623D02*
X148570801Y-132205671D01*
X147082706Y-132205671D02*
X147023182Y-132146147D01*
X147023182Y-132146147D02*
X146904135Y-132086623D01*
X146904135Y-132086623D02*
X146606516Y-132086623D01*
X146606516Y-132086623D02*
X146487468Y-132146147D01*
X146487468Y-132146147D02*
X146427944Y-132205671D01*
X146427944Y-132205671D02*
X146368421Y-132324719D01*
X146368421Y-132324719D02*
X146368421Y-132443766D01*
X146368421Y-132443766D02*
X146427944Y-132622338D01*
X146427944Y-132622338D02*
X147142230Y-133336623D01*
X147142230Y-133336623D02*
X146368421Y-133336623D01*
X145594611Y-132086623D02*
X145475564Y-132086623D01*
X145475564Y-132086623D02*
X145356516Y-132146147D01*
X145356516Y-132146147D02*
X145296992Y-132205671D01*
X145296992Y-132205671D02*
X145237468Y-132324719D01*
X145237468Y-132324719D02*
X145177945Y-132562814D01*
X145177945Y-132562814D02*
X145177945Y-132860433D01*
X145177945Y-132860433D02*
X145237468Y-133098528D01*
X145237468Y-133098528D02*
X145296992Y-133217576D01*
X145296992Y-133217576D02*
X145356516Y-133277100D01*
X145356516Y-133277100D02*
X145475564Y-133336623D01*
X145475564Y-133336623D02*
X145594611Y-133336623D01*
X145594611Y-133336623D02*
X145713659Y-133277100D01*
X145713659Y-133277100D02*
X145773183Y-133217576D01*
X145773183Y-133217576D02*
X145832706Y-133098528D01*
X145832706Y-133098528D02*
X145892230Y-132860433D01*
X145892230Y-132860433D02*
X145892230Y-132562814D01*
X145892230Y-132562814D02*
X145832706Y-132324719D01*
X145832706Y-132324719D02*
X145773183Y-132205671D01*
X145773183Y-132205671D02*
X145713659Y-132146147D01*
X145713659Y-132146147D02*
X145594611Y-132086623D01*
X144701754Y-132205671D02*
X144642230Y-132146147D01*
X144642230Y-132146147D02*
X144523183Y-132086623D01*
X144523183Y-132086623D02*
X144225564Y-132086623D01*
X144225564Y-132086623D02*
X144106516Y-132146147D01*
X144106516Y-132146147D02*
X144046992Y-132205671D01*
X144046992Y-132205671D02*
X143987469Y-132324719D01*
X143987469Y-132324719D02*
X143987469Y-132443766D01*
X143987469Y-132443766D02*
X144046992Y-132622338D01*
X144046992Y-132622338D02*
X144761278Y-133336623D01*
X144761278Y-133336623D02*
X143987469Y-133336623D01*
X142916040Y-132503290D02*
X142916040Y-133336623D01*
X143213659Y-132027100D02*
X143511278Y-132919957D01*
X143511278Y-132919957D02*
X142737469Y-132919957D01*
X142261278Y-133217576D02*
X142201755Y-133277100D01*
X142201755Y-133277100D02*
X142261278Y-133336623D01*
X142261278Y-133336623D02*
X142320802Y-133277100D01*
X142320802Y-133277100D02*
X142261278Y-133217576D01*
X142261278Y-133217576D02*
X142261278Y-133336623D01*
X141427945Y-132086623D02*
X141308898Y-132086623D01*
X141308898Y-132086623D02*
X141189850Y-132146147D01*
X141189850Y-132146147D02*
X141130326Y-132205671D01*
X141130326Y-132205671D02*
X141070802Y-132324719D01*
X141070802Y-132324719D02*
X141011279Y-132562814D01*
X141011279Y-132562814D02*
X141011279Y-132860433D01*
X141011279Y-132860433D02*
X141070802Y-133098528D01*
X141070802Y-133098528D02*
X141130326Y-133217576D01*
X141130326Y-133217576D02*
X141189850Y-133277100D01*
X141189850Y-133277100D02*
X141308898Y-133336623D01*
X141308898Y-133336623D02*
X141427945Y-133336623D01*
X141427945Y-133336623D02*
X141546993Y-133277100D01*
X141546993Y-133277100D02*
X141606517Y-133217576D01*
X141606517Y-133217576D02*
X141666040Y-133098528D01*
X141666040Y-133098528D02*
X141725564Y-132860433D01*
X141725564Y-132860433D02*
X141725564Y-132562814D01*
X141725564Y-132562814D02*
X141666040Y-132324719D01*
X141666040Y-132324719D02*
X141606517Y-132205671D01*
X141606517Y-132205671D02*
X141546993Y-132146147D01*
X141546993Y-132146147D02*
X141427945Y-132086623D01*
X140416041Y-133336623D02*
X140177945Y-133336623D01*
X140177945Y-133336623D02*
X140058898Y-133277100D01*
X140058898Y-133277100D02*
X139999374Y-133217576D01*
X139999374Y-133217576D02*
X139880326Y-133039004D01*
X139880326Y-133039004D02*
X139820803Y-132800909D01*
X139820803Y-132800909D02*
X139820803Y-132324719D01*
X139820803Y-132324719D02*
X139880326Y-132205671D01*
X139880326Y-132205671D02*
X139939850Y-132146147D01*
X139939850Y-132146147D02*
X140058898Y-132086623D01*
X140058898Y-132086623D02*
X140296993Y-132086623D01*
X140296993Y-132086623D02*
X140416041Y-132146147D01*
X140416041Y-132146147D02*
X140475564Y-132205671D01*
X140475564Y-132205671D02*
X140535088Y-132324719D01*
X140535088Y-132324719D02*
X140535088Y-132622338D01*
X140535088Y-132622338D02*
X140475564Y-132741385D01*
X140475564Y-132741385D02*
X140416041Y-132800909D01*
X140416041Y-132800909D02*
X140296993Y-132860433D01*
X140296993Y-132860433D02*
X140058898Y-132860433D01*
X140058898Y-132860433D02*
X139939850Y-132800909D01*
X139939850Y-132800909D02*
X139880326Y-132741385D01*
X139880326Y-132741385D02*
X139820803Y-132622338D01*
M02*
