M48
; DRILL file {KiCad 8.0.3} date 2024-08-24T23:10:21+0900
; FORMAT={-:-/ absolute / inch / decimal}
; #@! TF.CreationDate,2024-08-24T23:10:21+09:00
; #@! TF.GenerationSoftware,Kicad,Pcbnew,8.0.3
; #@! TF.FileFunction,Plated,1,2,PTH
FMAT,2
INCH
; #@! TA.AperFunction,Plated,PTH,ViaDrill
T1C0.0118
; #@! TA.AperFunction,Plated,PTH,ComponentDrill
T2C0.0236
; #@! TA.AperFunction,Plated,PTH,ComponentDrill
T3C0.0295
; #@! TA.AperFunction,Plated,PTH,ComponentDrill
T4C0.0300
; #@! TA.AperFunction,Plated,PTH,ComponentDrill
T5C0.0315
; #@! TA.AperFunction,Plated,PTH,ComponentDrill
T6C0.0354
; #@! TA.AperFunction,Plated,PTH,ComponentDrill
T7C0.0394
; #@! TA.AperFunction,Plated,PTH,ComponentDrill
T8C0.0433
%
G90
G05
T1
X4.0157Y-2.874
X4.0157Y-3.0315
X4.0157Y-4.2913
X4.0157Y-4.4882
X4.0157Y-4.685
X4.0157Y-4.8819
X4.0157Y-5.0787
X4.1339Y-2.874
X4.1339Y-3.0315
X4.2126Y-3.3071
X4.2126Y-3.7008
X4.2126Y-3.8976
X4.2126Y-4.0945
X4.2126Y-4.2913
X4.2126Y-4.4882
X4.2126Y-4.8819
X4.2126Y-5.0787
X4.2126Y-5.2756
X4.3012Y-3.248
X4.3068Y-2.8736
X4.3068Y-3.0709
X4.3307Y-2.7559
X4.3468Y-2.9676
X4.3745Y-2.9527
X4.4094Y-3.5039
X4.4094Y-3.7008
X4.4094Y-4.0945
X4.4094Y-4.2913
X4.4094Y-4.4882
X4.4094Y-4.685
X4.4094Y-4.8819
X4.4094Y-5.0787
X4.4094Y-5.2756
X4.4668Y-2.9476
X4.5276Y-3.189
X4.5868Y-2.9476
X4.6063Y-3.7008
X4.6063Y-3.8976
X4.6063Y-4.685
X4.6063Y-4.8819
X4.6457Y-2.7559
X4.6555Y-3.4547
X4.6568Y-3.3876
X4.6804Y-3.3654
X4.685Y-5.0787
X4.685Y-5.2756
X4.8018Y-2.9276
X4.8018Y-2.9826
X4.8018Y-3.0326
X4.8018Y-3.0826
X4.8031Y-3.3858
X4.8031Y-3.7008
X4.8068Y-3.1817
X4.8268Y-2.8817
X4.8468Y-3.1826
X4.8819Y-2.7559
X4.9168Y-2.8976
X4.9168Y-2.9576
X4.9168Y-3.0076
X4.9168Y-3.0576
X4.9168Y-3.1176
X4.9568Y-3.3476
X4.9704Y-3.494
X4.9768Y-2.8976
X4.9768Y-3.1176
X5.0Y-3.189
X5.0Y-4.1776
X5.0Y-4.2913
X5.0Y-4.4882
X5.0Y-5.0787
X5.0Y-5.2756
X5.0268Y-2.8976
X5.0268Y-3.1176
X5.0394Y-3.3465
X5.0768Y-2.8976
X5.0768Y-3.1176
X5.0787Y-2.7559
X5.0787Y-3.189
X5.0868Y-4.0976
X5.0868Y-4.2576
X5.1268Y-3.2276
X5.1368Y-2.8976
X5.1368Y-2.9576
X5.1368Y-3.0076
X5.1368Y-3.0576
X5.1368Y-3.1176
X5.1768Y-3.1776
X5.1968Y-4.2176
X5.1969Y-3.3858
X5.1969Y-4.0945
X5.1969Y-4.2913
X5.1969Y-4.4882
X5.1969Y-5.0787
X5.1969Y-5.2756
X5.2018Y-3.1276
X5.2118Y-3.5026
X5.2118Y-3.9276
X5.2268Y-3.0326
X5.2518Y-2.9776
X5.2756Y-2.7559
X5.2768Y-2.9276
X5.3031Y-2.8776
X5.3168Y-3.5976
X5.3168Y-3.8576
X5.3668Y-2.8776
X5.3668Y-2.9276
X5.3668Y-2.9776
X5.3668Y-3.0276
X5.3668Y-3.1276
X5.3668Y-3.1776
X5.3668Y-3.2276
X5.3904Y-4.0226
X5.3937Y-4.0945
X5.3937Y-4.2913
X5.3937Y-4.4882
X5.3937Y-4.685
X5.3937Y-4.8819
X5.3937Y-5.0787
X5.3937Y-5.2756
X5.4568Y-3.6326
X5.4868Y-3.4376
X5.5068Y-3.0726
X5.5118Y-2.7559
X5.5512Y-4.2126
X5.5674Y-4.1326
X5.5768Y-2.8726
X5.5768Y-3.2476
X5.5807Y-3.7697
X5.5906Y-4.4882
X5.5906Y-4.685
X5.5906Y-4.8819
X5.5906Y-5.0787
X5.5906Y-5.2756
X5.6299Y-2.9921
X5.6299Y-3.189
X5.6693Y-3.5039
X5.6768Y-2.8976
X5.6768Y-3.2726
X5.748Y-4.2126
X5.7874Y-4.4882
X5.7874Y-4.685
X5.7874Y-4.8819
X5.7874Y-5.0787
X5.7874Y-5.2756
X5.8268Y-2.9921
X5.8268Y-3.189
X5.8768Y-2.9226
X5.8768Y-3.2976
X5.9252Y-3.6024
X5.9268Y-3.0176
X5.9268Y-3.1976
X5.9768Y-2.9476
X5.9768Y-3.0176
X5.9768Y-3.1976
X5.9768Y-3.3226
X5.9843Y-4.2717
X5.9843Y-4.4882
X5.9843Y-4.685
X5.9843Y-4.8819
X5.9843Y-5.0787
X5.9843Y-5.2756
X6.0268Y-3.0176
X6.0268Y-3.1976
X6.0304Y-4.0776
X6.063Y-3.7795
X6.0768Y-2.8726
X6.0768Y-3.2476
X6.1024Y-4.0945
X6.1268Y-4.0213
X6.1768Y-2.8976
X6.1768Y-3.2726
X6.1811Y-2.9921
X6.1811Y-3.189
X6.1811Y-3.5039
X6.1811Y-4.2913
X6.1811Y-4.4882
X6.1811Y-4.685
X6.1811Y-4.8819
X6.1811Y-5.0787
X6.1811Y-5.2756
X6.3668Y-3.4876
X6.3768Y-2.9226
X6.3768Y-3.2976
X6.378Y-4.2913
X6.378Y-4.4882
X6.378Y-4.685
X6.378Y-4.8819
X6.378Y-5.0787
X6.378Y-5.2756
X6.4173Y-2.9921
X6.4173Y-3.189
X6.4718Y-3.6876
X6.4768Y-2.9476
X6.4768Y-3.3226
X6.4768Y-3.5026
X6.5268Y-3.2726
X6.5748Y-4.4882
X6.5748Y-4.8819
X6.5748Y-5.0787
X6.5748Y-5.2756
X6.5768Y-2.8726
X6.5768Y-3.2476
X6.6168Y-3.6876
X6.6768Y-2.8976
X6.6768Y-3.2726
X6.6929Y-2.9921
X6.6929Y-3.189
X6.6929Y-3.5039
X6.7717Y-3.6614
X6.7717Y-4.2913
X6.7717Y-4.4882
X6.7717Y-5.2756
X6.8268Y-2.8976
X6.8268Y-3.0176
X6.8268Y-3.1476
X6.8768Y-2.9226
X6.8768Y-3.0176
X6.8768Y-3.1476
X6.8768Y-3.2976
X6.9268Y-2.8726
X6.9268Y-3.0176
X6.9268Y-3.1476
X6.9685Y-2.9921
X6.9685Y-3.189
X6.9685Y-4.2913
X6.9685Y-4.4882
X6.9685Y-5.2756
X6.9768Y-2.9476
X6.9768Y-3.3226
X7.0168Y-3.5076
X7.0472Y-3.7008
X7.0472Y-3.8976
X7.0472Y-4.0945
X7.0768Y-2.8726
X7.0768Y-3.2476
X7.1654Y-5.0787
X7.1654Y-5.2756
X7.1768Y-2.8976
X7.1768Y-3.2726
X7.2047Y-2.9921
X7.2047Y-3.189
X7.2047Y-3.5039
X7.2441Y-3.7008
X7.2441Y-3.8976
X7.2441Y-4.0945
X7.2441Y-4.2913
X7.2441Y-4.4882
X7.3622Y-5.0787
X7.3622Y-5.2756
X7.3768Y-2.9226
X7.3768Y-3.2976
X7.4016Y-2.9921
X7.4016Y-3.189
X7.4409Y-3.5039
X7.4409Y-3.7008
X7.4409Y-3.8976
X7.4409Y-4.0945
X7.4409Y-4.2913
X7.4409Y-4.4882
X7.4768Y-2.9476
X7.4768Y-3.3226
X7.5984Y-2.7953
X7.6378Y-2.9134
X7.6378Y-3.1102
X7.6378Y-3.3071
X7.6378Y-3.5039
X7.6378Y-3.7008
X7.6378Y-3.8976
X7.6378Y-4.0945
X7.6378Y-4.2913
X7.6378Y-4.4882
X7.6378Y-4.685
X7.6378Y-4.8819
X7.6378Y-5.0787
T3
X5.8568Y-3.5476
X5.8568Y-3.5976
X5.8568Y-3.6476
X6.3668Y-3.5476
X6.3668Y-3.5976
X6.3668Y-3.6476
X6.8668Y-3.5476
X6.8668Y-3.5976
X6.8668Y-3.6476
X7.3668Y-3.5476
X7.3668Y-3.5976
X7.3668Y-3.6476
T4
X5.6768Y-4.342
X5.7768Y-4.342
X5.8768Y-4.342
X5.9768Y-4.342
X6.8014Y-4.6299
X6.9018Y-4.6299
X7.0014Y-4.6299
X7.3049Y-4.1726
X7.5018Y-4.1726
T5
X4.0768Y-3.5476
X4.0768Y-3.6476
X4.1188Y-4.6288
X4.1188Y-4.8288
X4.2518Y-3.5476
X4.3345Y-4.0726
X4.3502Y-3.5476
X4.4668Y-2.7976
X4.4668Y-3.0976
X4.5026Y-3.3726
X4.5033Y-3.5476
X4.5345Y-4.0726
X4.5829Y-4.2176
X4.5829Y-5.2276
X4.5868Y-2.7976
X4.5868Y-3.0976
X4.601Y-3.3726
X4.6018Y-3.5476
X4.7268Y-4.0726
X4.7829Y-4.2176
X4.7829Y-5.2276
X5.0268Y-4.0726
X5.2368Y-4.6288
X5.2368Y-4.8288
X5.5768Y-2.7976
X5.5768Y-3.3976
X5.6268Y-3.5976
X5.6518Y-3.7726
X5.6518Y-4.0726
X5.6768Y-2.7976
X5.6768Y-3.3976
X5.7268Y-3.5976
X5.7518Y-3.7726
X5.7518Y-4.0726
X5.7768Y-2.7976
X5.7768Y-3.3976
X5.8518Y-3.7726
X5.8518Y-4.0726
X5.8768Y-2.7976
X5.8768Y-3.3976
X5.9518Y-3.7726
X5.9518Y-4.0726
X5.9768Y-2.7976
X5.9768Y-3.3976
X6.0768Y-2.7976
X6.0768Y-3.3976
X6.1368Y-3.5976
X6.1768Y-2.7976
X6.1768Y-3.3976
X6.2268Y-3.7726
X6.2268Y-4.0726
X6.2368Y-3.5976
X6.2768Y-2.7976
X6.2768Y-3.3976
X6.3268Y-3.7726
X6.3268Y-4.0726
X6.3768Y-2.7976
X6.3768Y-3.3976
X6.4268Y-3.7726
X6.4268Y-4.0726
X6.4568Y-4.3176
X6.4568Y-4.6176
X6.4768Y-2.7976
X6.4768Y-3.3976
X6.5268Y-3.7726
X6.5268Y-4.0726
X6.5768Y-2.7976
X6.5768Y-3.3976
X6.5768Y-4.3176
X6.5768Y-4.6176
X6.6268Y-3.7726
X6.6268Y-4.0726
X6.6368Y-3.5976
X6.6768Y-2.7976
X6.6768Y-3.3976
X6.7268Y-3.7726
X6.7268Y-4.0726
X6.7268Y-5.1476
X6.7368Y-3.5976
X6.7768Y-2.7976
X6.7768Y-3.3976
X6.8268Y-3.7726
X6.8268Y-4.0726
X6.8768Y-2.7976
X6.8768Y-3.3976
X6.9268Y-3.7726
X6.9268Y-4.0726
X6.9268Y-5.1476
X6.9768Y-2.7976
X6.9768Y-3.3976
X7.0768Y-2.7976
X7.0768Y-3.3976
X7.1368Y-3.5976
X7.1768Y-2.7976
X7.1768Y-3.3976
X7.2329Y-4.9976
X7.2368Y-3.5976
X7.2518Y-3.8226
X7.2768Y-2.7976
X7.2768Y-3.3976
X7.3768Y-2.7976
X7.3768Y-3.3976
X7.4329Y-4.9976
X7.4768Y-2.7976
X7.4768Y-3.3976
X7.5518Y-3.8226
T6
X4.0768Y-3.2724
X4.0768Y-3.3724
T7
X4.0768Y-3.8176
X4.0768Y-3.9176
X4.0768Y-4.0176
X4.0768Y-4.1176
X4.0768Y-4.2176
T8
X4.2409Y-4.6341
X4.2409Y-4.8112
X4.3283Y-3.8976
X4.4283Y-3.8976
X4.4968Y-4.6341
X4.4968Y-4.8112
X4.5283Y-3.8976
X4.5488Y-4.3341
X4.5488Y-4.5112
X4.5488Y-4.9341
X4.5488Y-5.1112
X4.7882Y-3.5976
X4.7882Y-3.8535
X4.8047Y-4.3341
X4.8047Y-4.5112
X4.8047Y-4.9341
X4.8047Y-5.1112
X4.8588Y-4.6341
X4.8588Y-4.8112
X4.9654Y-3.5976
X4.9654Y-3.8535
X5.1147Y-4.6341
X5.1147Y-4.8112
X5.2132Y-3.5947
X5.2132Y-3.8506
X5.3904Y-3.5947
X5.3904Y-3.8506
X6.6988Y-4.8591
X6.6988Y-5.0362
X6.9547Y-4.8591
X6.9547Y-5.0362
X7.1988Y-4.7091
X7.1988Y-4.8862
X7.4547Y-4.7091
X7.4547Y-4.8862
T2
G00X4.0763Y-2.7776
M15
G01X4.0526Y-2.7776
M16
G05
G00X4.0763Y-3.1177
M15
G01X4.0526Y-3.1177
M16
G05
G00X4.2507Y-2.7776
M15
G01X4.2074Y-2.7776
M16
G05
G00X4.2507Y-3.1177
M15
G01X4.2074Y-3.1177
M16
G05
M30
