%TF.GenerationSoftware,KiCad,Pcbnew,8.0.3*%
%TF.CreationDate,2024-08-24T23:10:25+09:00*%
%TF.ProjectId,Rustorch,52757374-6f72-4636-982e-6b696361645f,rev?*%
%TF.SameCoordinates,Original*%
%TF.FileFunction,Paste,Top*%
%TF.FilePolarity,Positive*%
%FSLAX46Y46*%
G04 Gerber Fmt 4.6, Leading zero omitted, Abs format (unit mm)*
G04 Created by KiCad (PCBNEW 8.0.3) date 2024-08-24 23:10:25*
%MOMM*%
%LPD*%
G01*
G04 APERTURE LIST*
%ADD10R,1.500000X0.900000*%
%ADD11R,0.800000X0.800000*%
%ADD12R,1.150000X0.300000*%
G04 APERTURE END LIST*
D10*
%TO.C,U1*%
X120455000Y-70654000D03*
X120455000Y-71924000D03*
X120455000Y-73194000D03*
X120455000Y-74464000D03*
X120455000Y-75734000D03*
X120455000Y-77004000D03*
X120455000Y-78274000D03*
X120455000Y-79544000D03*
X120455000Y-80814000D03*
X120455000Y-82084000D03*
X120455000Y-83354000D03*
X120455000Y-84624000D03*
X120455000Y-85894000D03*
X120455000Y-87164000D03*
X137955000Y-87164000D03*
X137955000Y-85894000D03*
X137955000Y-84624000D03*
X137955000Y-83354000D03*
X137955000Y-82084000D03*
X137955000Y-80814000D03*
X137955000Y-79544000D03*
X137955000Y-78274000D03*
X137955000Y-77004000D03*
X137955000Y-75734000D03*
X137955000Y-74464000D03*
X137955000Y-73194000D03*
X137955000Y-71924000D03*
X137955000Y-70654000D03*
D11*
X126450000Y-75124000D03*
X126450000Y-76374000D03*
X126450000Y-77624000D03*
X127700000Y-75124000D03*
X127700000Y-76374000D03*
X127700000Y-77624000D03*
X128950000Y-75124000D03*
X128950000Y-76374000D03*
X128950000Y-77624000D03*
%TD*%
D12*
%TO.C,CN1*%
X107982000Y-71520000D03*
X107982000Y-72320000D03*
X107982000Y-73620000D03*
X107982000Y-74620000D03*
X107982000Y-75120000D03*
X107982000Y-76120000D03*
X107982000Y-77420000D03*
X107982000Y-78220000D03*
X107982000Y-77920000D03*
X107982000Y-77120000D03*
X107982000Y-76620000D03*
X107982000Y-75620000D03*
X107982000Y-74120000D03*
X107982000Y-73120000D03*
X107982000Y-72620000D03*
X107982000Y-71820000D03*
%TD*%
M02*
